<svg xmlns="http://www.w3.org/2000/svg" width="280.2" height="100.4"><path d="M29.5 66.1c5 0 9.5-2.5 13.5-7.5l8.9 10C45 75.8 37.5 79.4 29.4 79.4S14.5 76.9 9 71.8C3.4 66.7.7 60.1.7 51.8c0-8.2 2.8-14.9 8.4-20.1 5.6-5.2 12.3-7.7 20-7.7 3.9 0 7.8.8 11.7 2.4 4 1.6 7.4 4 10.4 7.1l-7.8 10.2c-1.7-2.1-3.8-3.7-6.3-4.8-2.5-1.1-5-1.7-7.4-1.7-3.9 0-7.3 1.3-10.1 3.8-2.8 2.6-4.2 6.1-4.2 10.7s1.4 8.1 4.2 10.6c2.8 2.6 6.1 3.8 9.9 3.8zm41.9-16.5v28.9h-15v-74h15v26.3C75.9 26.3 81 24 86.6 24s10.4 2 14.2 6c3.9 4 5.8 9.3 5.8 16v32.6h-15V49.3c0-8.2-3-12.4-9.1-12.4-3 0-5.6 1.1-7.8 3.2-2.2 2.2-3.3 5.4-3.3 9.5zm90 21.2c-6.1 5.7-13.2 8.6-21.3 8.6-8.2 0-14.9-2.5-20.2-7.5-5.3-5-8-11.8-8-20.2 0-8.4 2.7-15.2 8.1-20.2 5.4-5 11.8-7.5 19.2-7.5 7.4 0 13.7 2.2 18.8 6.7 5.2 4.5 7.7 10.6 7.7 18.4v8h-39.1c.5 2.9 2 5.3 4.6 7.2 2.6 1.9 5.5 2.8 8.8 2.8 5.3 0 9.6-1.8 13-5.3l8.4 9zM147 39c-2.1-1.7-4.6-2.6-7.5-2.6-3 0-5.7.9-8.1 2.7-2.5 1.8-3.9 4.2-4.3 7.3h23.6c-.4-3.2-1.6-5.7-3.7-7.4zm65.2 30.5c-4.7 5.3-10.6 7.9-17.6 7.9-7 0-12.9-2.4-17.8-7.1-4.8-4.8-7.2-11.1-7.2-19.1 0-7.9 2.5-14.5 7.4-19.6 5-5.1 10.6-7.6 17-7.6s11.7 2.6 15.9 7.9v-7.1h15v46.8c0 4.8-.8 9-2.5 12.8-1.7 3.7-3.9 6.7-6.7 8.8-5.5 4.4-12 6.6-19.6 6.6-4 0-8.1-.6-12.2-1.9-4.2-1.3-7.8-3.1-10.9-5.5l5.8-11.3c4.9 3.7 10.1 5.6 15.6 5.6s9.8-1.4 13-4.1c3.2-2.8 4.8-7.2 4.8-13.1zm-2.1-18.9c0-4.3-1.2-7.7-3.6-10.1-2.4-2.5-5.4-3.7-8.9-3.7s-6.6 1.2-9.1 3.7c-2.6 2.5-3.8 5.8-3.8 10.1s1.2 7.7 3.7 10.3c2.5 2.6 5.5 3.9 9.1 3.9 3.6 0 6.6-1.3 9-3.9 2.4-2.6 3.6-6 3.6-10.3zm66.8 28h-14.1v-6.5c-3.9 4.9-8.6 7.3-14.3 7.3-5.7 0-10.5-1.6-14.3-4.9-3.9-3.3-5.8-7.7-5.8-13.2 0-5.5 2-9.6 6-12.3 4-2.7 9.4-4.1 16.4-4.1H262v-.3c0-5.7-3-8.6-9.1-8.6-2.6 0-5.3.5-8.2 1.5-2.9 1-5.3 2.3-7.3 3.8l-6.7-9.7c7.1-5.1 15.1-7.7 24.2-7.7 6.5 0 11.8 1.6 16 4.9 4.1 3.3 6.2 8.4 6.2 15.5v34.3zm-15.1-20.5v-2.6h-9.4c-6 0-9 1.9-9 5.6 0 1.9.7 3.4 2.1 4.4 1.4 1 3.5 1.5 6.1 1.5 2.7 0 5-.8 7-2.4 2.2-1.6 3.2-3.7 3.2-6.5z" fill="none" stroke="#71bf44" stroke-width="1.278" stroke-linecap="round" stroke-linejoin="round" stroke-miterlimit="10"/><path d="M32.8 61.6c5 0 9.5-2.5 13.5-7.5l8.9 10c-6.9 7.2-14.4 10.8-22.5 10.8s-14.9-2.5-20.4-7.6C6.7 62.2 4 55.6 4 47.3c0-8.2 2.8-14.9 8.4-20.1 5.6-5.2 12.3-7.7 20-7.7 3.9 0 7.8.8 11.7 2.4 4 1.6 7.4 4 10.4 7.1l-7.8 10.2c-1.7-2.1-3.8-3.7-6.3-4.8-2.5-1.1-5-1.7-7.4-1.7-3.9 0-7.3 1.3-10.1 3.8-2.8 2.6-4.2 6.1-4.2 10.7s1.4 8.1 4.2 10.6c2.8 2.5 6.1 3.8 9.9 3.8zm41.9-16.5V74h-15V0h15v26.3c4.5-4.6 9.6-6.9 15.2-6.9s10.4 2 14.2 6c3.9 4 5.8 9.3 5.8 16V74h-15V44.7c0-8.2-3-12.4-9.1-12.4-3 0-5.6 1.1-7.8 3.2-2.2 2.2-3.3 5.4-3.3 9.6zm90 21.2c-6.1 5.7-13.2 8.6-21.3 8.6-8.2 0-14.9-2.5-20.2-7.5-5.3-5-8-11.8-8-20.2 0-8.4 2.7-15.2 8.1-20.2 5.4-5 11.8-7.5 19.2-7.5 7.4 0 13.7 2.2 18.8 6.7 5.2 4.5 7.7 10.6 7.7 18.4v8h-39c.5 2.9 2 5.3 4.6 7.2 2.6 1.9 5.5 2.8 8.8 2.8 5.3 0 9.6-1.8 13-5.3l8.3 9zm-14.4-31.9c-2.1-1.7-4.6-2.6-7.5-2.6-3 0-5.7.9-8.1 2.7-2.5 1.8-3.9 4.2-4.3 7.3H154c-.4-3.2-1.6-5.6-3.7-7.4zM215.4 65c-4.7 5.3-10.6 7.9-17.6 7.9-7 0-12.9-2.4-17.8-7.1-4.8-4.8-7.2-11.1-7.2-19.1 0-7.9 2.5-14.5 7.4-19.6 5-5.1 10.6-7.6 17-7.6s11.7 2.6 15.9 7.9v-7.1h15v46.8c0 4.8-.8 9-2.5 12.8-1.7 3.7-3.9 6.7-6.7 8.8-5.5 4.4-12 6.6-19.6 6.6-4 0-8.1-.6-12.2-1.9-4.2-1.3-7.8-3.1-10.9-5.5l5.8-11.3c4.9 3.7 10.1 5.6 15.6 5.6s9.8-1.4 13-4.1c3.3-2.9 4.8-7.2 4.8-13.1zm-2-18.9c0-4.3-1.2-7.7-3.6-10.1-2.4-2.5-5.4-3.7-8.9-3.7s-6.6 1.2-9.1 3.7c-2.6 2.5-3.8 5.8-3.8 10.1s1.2 7.7 3.7 10.3c2.5 2.6 5.5 3.9 9.1 3.9 3.6 0 6.6-1.3 9-3.9 2.4-2.6 3.6-6.1 3.6-10.3zM280.2 74h-14.1v-6.5c-3.9 4.9-8.6 7.3-14.3 7.3-5.7 0-10.5-1.6-14.3-4.9-3.9-3.3-5.8-7.7-5.8-13.2 0-5.5 2-9.6 6-12.3 4-2.7 9.4-4.1 16.4-4.1h11.2V40c0-5.7-3-8.6-9.1-8.6-2.6 0-5.3.5-8.2 1.5-2.9 1-5.3 2.3-7.3 3.8L234 27c7.1-5.1 15.1-7.7 24.1-7.7 6.5 0 11.8 1.6 16 4.9 4.1 3.3 6.2 8.4 6.2 15.5V74zm-15.1-20.4V51h-9.4c-6 0-9 1.9-9 5.6 0 1.9.7 3.4 2.1 4.4 1.4 1 3.5 1.5 6.1 1.5 2.7 0 5-.8 7-2.4 2.2-1.6 3.2-3.8 3.2-6.5z" fill="#fff"/></svg>