<svg xmlns="http://www.w3.org/2000/svg" width="97.6" height="109.3"><style>.st0{fill:#fff}.st2{fill:none;stroke:#fff;stroke-width:.5;stroke-miterlimit:10}</style><path class="st0" d="M90.7 66.6H6.9c-3.8 0-6.9-3.1-6.9-6.9V6.9C0 3.1 3.1 0 6.9 0h83.8c3.8 0 6.9 3.1 6.9 6.9v52.8c0 3.8-3.1 6.9-6.9 6.9z"/><path fill="#402b67" d="M9.2 24.6h27.7v16.8H9.2z"/><path class="st2" d="M9.1 28.4h5.1l1.7 2V35l-1.6 1.5H7.4m30.2 0h-5l-1.7-1.9V30l1.6-1.5h6.9M8.8 32.4l7.1.1m15 0H38m-14.9-3.6h3.3c.5 0 .8.4.8.8v6.6c0 .5-.4.8-.8.8h-3.5"/><path class="st2" d="M19 29.8c0-.5.4-.8.8-.8h3.3m0 8.1v4.4m0-16.9v9.2"/><circle transform="rotate(-76.714 78.796 18.211)" cx="78.8" cy="18.2" fill="#3bb34a" r="8.5"/><path class="st0" d="M36.4 109.3c-1.8 0-3.2-.5-4.1-1.5-.9-1-1.4-2.4-1.4-4.3 0-.9.1-1.7.4-2.5.3-.7.7-1.3 1.2-1.8s1.1-.9 1.8-1.1c.7-.3 1.4-.4 2.3-.4.5 0 .9 0 1.3.1s.7.1 1 .2c.3.1.5.2.7.3.2.1.3.2.4.2l-.7 2c-.3-.2-.7-.3-1.2-.5s-1-.2-1.5-.2c-.4 0-.8.1-1.1.2-.4.1-.7.3-1 .6-.3.3-.5.6-.7 1.1-.2.4-.3 1-.3 1.6 0 .5.1 1 .2 1.4.1.4.3.8.5 1.1.3.3.6.6 1 .8.4.2.9.3 1.5.3.4 0 .7 0 1-.1s.5-.1.8-.2c.2-.1.4-.1.6-.2.2-.1.3-.1.5-.2l.7 2c-.4.2-.8.4-1.5.6-.8.5-1.5.5-2.4.5zm12-11.3h2.5v11.1h-2.5v-4.7h-4.2v4.7h-2.5V98h2.5v4.2h4.2V98zm5.1 0H56v11.1h-2.5V98zm8.4-.1c1.7 0 2.9.3 3.8.9.9.6 1.3 1.5 1.3 2.9 0 1.3-.4 2.3-1.3 2.9-.9.6-2.2.9-3.8.9H61v3.7h-2.5v-11c.5-.1 1.1-.2 1.7-.2.7-.1 1.2-.1 1.7-.1zm.1 2.1h-1v3.2h.8c.9 0 1.5-.1 2-.4.4-.2.7-.7.7-1.3 0-.3-.1-.6-.2-.8-.1-.2-.3-.4-.5-.5s-.5-.2-.8-.3c-.3.2-.6.1-1 .1z"/></svg>