<svg xmlns="http://www.w3.org/2000/svg" width="54.7" height="141.6"><path d="M45.7 103.9H9c-4.9 0-9-4-9-9V9c0-5 4-9 9-9h36.7c4.9 0 9 4 9 9v86c0 4.9-4.1 8.9-9 8.9z" fill="#402b67"/><path d="M43.9 88H10.7c-3 0-5.5-2.4-5.5-5.5V10.9c0-3 2.4-5.5 5.5-5.5h33.2c3 0 5.5 2.4 5.5 5.5v71.7c0 3-2.4 5.4-5.5 5.4z" fill="#fff" stroke="#71bf44" stroke-miterlimit="10"/><circle cx="27.3" cy="96.3" r="3.8" fill="none" stroke="#fff" stroke-miterlimit="10"/><path d="M16.7 33.5H9.8c-1.2 0-2.1-1-2.1-2.1v-6.9c0-1.2 1-2.1 2.1-2.1h6.9c1.2 0 2.1 1 2.1 2.1v6.9c0 1.1-.9 2.1-2.1 2.1zm14 0h-6.9c-1.2 0-2.1-1-2.1-2.1v-6.9c0-1.2 1-2.1 2.1-2.1h6.9c1.2 0 2.1 1 2.1 2.1v6.9c0 1.1-1 2.1-2.1 2.1zm0 18.5h-6.9c-1.2 0-2.1-1-2.1-2.1V43c0-1.2 1-2.1 2.1-2.1h6.9c1.2 0 2.1 1 2.1 2.1v6.9c0 1.2-1 2.1-2.1 2.1zm13.7-18.5h-7.1c-1.1 0-2-.9-2-2v-7.1c0-1.1.9-2 2-2h7.1c1.1 0 2 .9 2 2v7.1c0 1.1-.9 2-2 2zM16.8 71.2H9.9c-1.2 0-2.1-1-2.1-2.1v-6.9c0-1.2 1-2.1 2.1-2.1h6.9c1.2 0 2.1 1 2.1 2.1V69c.1 1.2-.9 2.2-2.1 2.2zm14 0h-6.9c-1.2 0-2.1-1-2.1-2.1v-6.9c0-1.2 1-2.1 2.1-2.1h6.9c1.2 0 2.1 1 2.1 2.1V69c0 1.2-.9 2.2-2.1 2.2zm13.8 0h-7.1c-1.1 0-2-.9-2-2V62c0-1.1.9-2 2-2h7.1c1.1 0 2 .9 2 2v7.1c0 1.2-.9 2.1-2 2.1zM44.4 52h-7.1c-1.1 0-2-.9-2-2v-7.1c0-1.1.9-2 2-2h7.1c1.1 0 2 .9 2 2V50c0 1.1-.9 2-2 2zm-27.6 0H9.6c-1.1 0-2-.9-2-2v-7.1c0-1.1.9-2 2-2h7.1c1.1 0 2 .9 2 2V50c.1 1.1-.8 2-1.9 2z" fill="#71bf44"/><path d="M20.3 141.4c-.7-1.3-1.5-2.5-2.3-3.8s-1.7-2.4-2.7-3.5v7.3h-2.5v-11.1h2c.4.4.7.8 1.2 1.3s.9 1.1 1.3 1.6c.4.6.9 1.2 1.3 1.8l1.2 1.8v-6.5h2.5v11.1h-2zm4.6 0v-11.1h7.4v2.1h-4.9v2.3h4.4v2.1h-4.4v4.6h-2.5zm14.2.2c-1.8 0-3.2-.5-4.1-1.5-.9-1-1.4-2.4-1.4-4.3 0-.9.1-1.7.4-2.5.3-.7.7-1.3 1.2-1.8s1.1-.9 1.8-1.1 1.4-.4 2.3-.4c.5 0 .9 0 1.3.1s.7.1 1 .2c.3.1.5.2.7.3.2.1.3.2.4.2l-.7 2c-.3-.2-.7-.3-1.2-.5-.5-.1-1-.2-1.5-.2-.4 0-.8.1-1.1.2-.4.1-.7.3-1 .6-.3.3-.5.6-.7 1.1-.2.4-.3 1-.3 1.6 0 .5.1 1 .2 1.4.1.4.3.8.5 1.1.3.3.6.6 1 .8.4.2.9.3 1.5.3.4 0 .7 0 1-.1s.5-.1.8-.2c.2-.1.4-.1.6-.2s.3-.1.5-.2l.7 2c-.4.2-.8.4-1.5.6-.9.4-1.6.5-2.4.5z" fill="#fff"/></svg>