<svg xmlns="http://www.w3.org/2000/svg" width="68.5" height="133.8"><g stroke-miterlimit="10"><path d="M45.7 92.3H22.4c-1.1 0-1.9-.9-1.9-1.9V2.9c0-1.1.9-1.9 1.9-1.9h23.4c1.1 0 1.9.9 1.9 1.9v87.4c-.1 1.1-.9 2-2 2z" fill="#402b67" stroke="#402b67" stroke-width="2"/><path d="M51.7 69.2H16.4c-2.7 0-4.9-2.2-4.9-4.9V29c0-2.7 2.2-4.9 4.9-4.9h35.3c2.7 0 4.9 2.2 4.9 4.9v35.3c0 2.7-2.2 4.9-4.9 4.9z" fill="none" stroke="#71bf44" stroke-width="4"/><path d="M50.5 68.1h-33c-2.7 0-4.9-2.2-4.9-4.9v-33c0-2.7 2.2-4.9 4.9-4.9h33c2.7 0 4.9 2.2 4.9 4.9v33c.1 2.7-2.2 4.9-4.9 4.9z" fill="#71bf44" stroke="#fff" stroke-width="4"/><circle cx="34" cy="46.6" r="13.6" fill="#fff" stroke="#fff" stroke-width="2"/></g><path d="M3.2 122.3c1.7 0 2.9.3 3.8.9.9.6 1.3 1.5 1.3 2.8 0 .8-.2 1.4-.5 1.9-.4.5-.9.9-1.5 1.1.2.3.5.6.7 1 .2.4.5.7.7 1.1.2.4.5.8.7 1.2l.6 1.2H6.3c-.2-.4-.4-.7-.6-1.1-.2-.4-.4-.7-.6-1.1-.2-.4-.4-.7-.7-1l-.6-.9H2.5v4H0v-10.9c.5-.1 1.1-.2 1.7-.2.6.1 1.1 0 1.5 0zm.2 2.2h-.9v3h.7c.9 0 1.6-.1 2-.4.4-.2.6-.6.6-1.2 0-.5-.2-.9-.6-1.2-.4-.1-1-.2-1.8-.2zm7.3 9.1v-11.1h7.5v2.1h-5v2.2h4.4v2h-4.4v2.7h5.4v2.1h-7.9zm17.1-2.2v2.1h-7.4v-11.1h2.5v8.9h4.9zm11.8-3.4c0 .9-.1 1.8-.4 2.5-.3.7-.7 1.3-1.2 1.8s-1.1.9-1.8 1.1c-.7.2-1.4.4-2.2.4-.8 0-1.5-.1-2.1-.4-.7-.2-1.3-.6-1.8-1.1-.5-.5-.9-1.1-1.2-1.8-.3-.7-.4-1.6-.4-2.5 0-.9.1-1.8.4-2.5.3-.7.7-1.3 1.2-1.8s1.1-.9 1.8-1.1c.7-.2 1.4-.4 2.1-.4.8 0 1.5.1 2.1.4.7.2 1.3.6 1.8 1.1.5.5.9 1.1 1.2 1.8.4.7.5 1.6.5 2.5zm-8.4 0c0 .5.1 1 .2 1.5.1.4.3.8.6 1.1.3.3.6.6.9.7.4.2.8.3 1.2.3.5 0 .9-.1 1.2-.3.4-.2.7-.4.9-.7.3-.3.4-.7.6-1.1.2-.5.2-.9.2-1.5 0-.5-.1-1-.2-1.5-.1-.4-.3-.8-.6-1.1-.3-.3-.6-.6-.9-.7-.4-.2-.8-.3-1.2-.3-.5 0-.9.1-1.2.3-.4.2-.7.4-.9.7-.3.3-.4.7-.6 1.1-.2.5-.2 1-.2 1.5zm4.8-8.4l-2.6 2.2-1.1-1 2.3-2.6 1.4 1.4zm11.1 4.8c-1.2 0-2 .3-2.5 1-.5.6-.8 1.5-.8 2.6 0 .5.1 1 .2 1.5.1.4.3.8.6 1.1.3.3.6.6 1 .7.4.2.8.3 1.3.3h.7c.2 0 .4 0 .5-.1v-3.9h2.5v5.5c-.3.1-.8.2-1.4.4s-1.5.2-2.4.2c-.8 0-1.6-.1-2.3-.4-.7-.3-1.3-.6-1.7-1.1s-.9-1.1-1.1-1.8c-.3-.7-.4-1.5-.4-2.4 0-.9.1-1.7.4-2.5.3-.7.7-1.3 1.2-1.8s1.1-.9 1.8-1.1c.7-.3 1.4-.4 2.2-.4.5 0 1 0 1.4.1.4.1.8.1 1.1.2.3.1.6.2.8.3.2.1.3.2.4.2l-.7 2c-.3-.2-.7-.3-1.2-.5-.6 0-1.1-.1-1.6-.1zm5.8-1.9h2.5v11.1h-2.5v-11.1zm15.6 5.5c0 .9-.1 1.8-.4 2.5-.3.7-.7 1.3-1.2 1.8s-1.1.9-1.8 1.1c-.7.2-1.4.4-2.2.4-.8 0-1.5-.1-2.1-.4-.7-.2-1.3-.6-1.8-1.1-.5-.5-.9-1.1-1.2-1.8-.3-.7-.4-1.6-.4-2.5 0-.9.1-1.8.4-2.5.3-.7.7-1.3 1.2-1.8s1.1-.9 1.8-1.1c.7-.2 1.4-.4 2.1-.4.8 0 1.5.1 2.1.4.7.2 1.3.6 1.8 1.1.5.5.9 1.1 1.2 1.8.4.7.5 1.6.5 2.5zm-8.4 0c0 .5.1 1 .2 1.5.1.4.3.8.6 1.1.3.3.6.6.9.7.4.2.8.3 1.2.3.5 0 .9-.1 1.2-.3.4-.2.7-.4.9-.7.3-.3.4-.7.6-1.1.1-.4.2-.9.2-1.5 0-.5-.1-1-.2-1.5-.1-.4-.3-.8-.6-1.1-.3-.3-.6-.6-.9-.7-.4-.2-.8-.3-1.2-.3-.5 0-.9.1-1.2.3-.4.2-.7.4-.9.7-.3.3-.4.7-.6 1.1-.2.5-.2 1-.2 1.5z" fill="#fff"/></svg>