<svg width="63" height="166" viewBox="0 0 63 166" fill="none" xmlns="http://www.w3.org/2000/svg">
<g clip-path="url(#clip0_25_82)">
<path d="M11.8929 146.471C14.7054 146.471 16.875 146.955 18.4018 147.923C19.9286 148.892 20.6518 150.506 20.6518 152.765C20.6518 155.025 19.9286 156.72 18.4018 157.688C16.875 158.737 14.7054 159.221 11.8929 159.221H10.5268V165.597H6.26788V146.955C7.23217 146.793 8.19645 146.632 9.2411 146.551C10.2054 146.551 11.1697 146.471 11.8929 146.471ZM12.2143 150.102H11.3304C11.009 150.102 10.7679 150.102 10.5268 150.183V155.67H11.8929C13.3393 155.67 14.4643 155.509 15.1875 155.106C15.9107 154.702 16.3125 153.976 16.3125 152.846C16.3125 152.281 16.2322 151.878 15.9911 151.555C15.75 151.232 15.509 150.909 15.1875 150.748C14.8661 150.506 14.384 150.425 13.9018 150.344C13.3393 150.183 12.7768 150.102 12.2143 150.102ZM41.7054 156.155C41.7054 157.769 41.4643 159.221 40.9822 160.432C40.5 161.642 39.8572 162.691 38.9732 163.498C38.1697 164.305 37.125 164.951 36 165.354C34.875 165.758 33.5893 166 32.3036 166C31.0179 166 29.8125 165.758 28.6875 165.354C27.5625 164.951 26.5179 164.305 25.7143 163.498C24.8304 162.691 24.1875 161.642 23.7054 160.432C23.2232 159.221 22.9822 157.769 22.9822 156.155C22.9822 154.541 23.2232 153.088 23.7054 151.878C24.1875 150.667 24.9107 149.618 25.7947 148.811C26.6786 148.004 27.6429 147.358 28.7679 146.955C29.8929 146.551 31.0982 146.309 32.384 146.309C33.6697 146.309 34.875 146.551 36 146.955C37.125 147.358 38.1697 148.004 38.9732 148.811C39.8572 149.618 40.5 150.667 40.9822 151.878C41.4643 153.088 41.7054 154.541 41.7054 156.155ZM27.3215 156.155C27.3215 157.123 27.4018 157.93 27.6429 158.656C27.884 159.383 28.2054 160.028 28.6072 160.593C29.009 161.158 29.5715 161.562 30.134 161.804C30.7768 162.126 31.4197 162.207 32.2232 162.207C33.0268 162.207 33.6697 162.046 34.3125 161.804C34.9554 161.481 35.4375 161.077 35.9197 160.593C36.3215 160.028 36.6429 159.383 36.884 158.656C37.125 157.93 37.2054 157.042 37.2054 156.155C37.2054 155.267 37.125 154.379 36.884 153.653C36.6429 152.927 36.3215 152.281 35.9197 151.716C35.5179 151.151 34.9554 150.748 34.3125 150.506C33.6697 150.183 32.9465 150.102 32.2232 150.102C31.4197 150.102 30.6965 150.264 30.134 150.586C29.4911 150.909 29.009 151.313 28.6072 151.878C28.2054 152.442 27.884 153.088 27.6429 153.814C27.4822 154.46 27.3215 155.267 27.3215 156.155ZM50.384 162.369C50.9465 162.369 51.509 162.288 51.8304 162.207C52.2322 162.126 52.5536 161.965 52.7947 161.804C53.0357 161.642 53.1965 161.4 53.2768 161.158C53.3572 160.916 53.4375 160.674 53.4375 160.351C53.4375 159.705 53.1161 159.221 52.5536 158.818C51.9911 158.414 50.9465 157.93 49.5804 157.527C48.9375 157.284 48.375 157.042 47.7322 156.8C47.0893 156.558 46.5268 156.155 46.0447 155.751C45.5625 155.348 45.1607 154.783 44.8393 154.218C44.5179 153.572 44.3572 152.846 44.3572 151.958C44.3572 151.071 44.5179 150.263 44.8393 149.618C45.1607 148.892 45.6429 148.327 46.2054 147.843C46.7679 147.358 47.4911 146.955 48.375 146.713C49.259 146.471 50.2232 146.309 51.2679 146.309C52.5536 146.309 53.5982 146.471 54.5625 146.713C55.5268 146.955 56.25 147.278 56.8125 147.6L55.6072 150.99C55.0447 150.748 54.4822 150.506 53.8393 150.264C53.1965 150.021 52.3929 149.941 51.509 149.941C50.4643 149.941 49.7411 150.102 49.3393 150.344C48.8572 150.667 48.6965 151.07 48.6965 151.635C48.6965 151.958 48.7768 152.281 48.9375 152.523C49.0982 152.765 49.3393 153.007 49.6607 153.169C49.9822 153.33 50.3036 153.572 50.7054 153.653C51.1072 153.814 51.509 153.976 51.9911 154.137C52.9554 154.541 53.8393 154.863 54.5625 155.186C55.2857 155.509 55.9286 155.993 56.4107 156.397C56.8929 156.881 57.2143 157.446 57.4554 158.091C57.6965 158.737 57.7768 159.463 57.7768 160.432C57.7768 162.207 57.134 163.579 55.9286 164.547C54.7232 165.516 52.875 166 50.384 166C49.5804 166 48.7768 165.919 48.134 165.839C47.4911 165.758 46.8482 165.597 46.3661 165.435C45.884 165.274 45.4018 165.112 45 164.951C44.5982 164.79 44.2768 164.628 44.0357 164.467L45.2411 161.077C45.8036 161.4 46.5268 161.642 47.3304 161.884C48.2143 162.288 49.1786 162.369 50.384 162.369Z" fill="#71BE44"/>
<path d="M58.9821 121.05H4.2589C4.2589 121.05 1.60712 83.4439 1.60712 68.2723C1.60712 53.1813 2.33033 1.61401 2.33033 1.61401H60.3482C60.3482 1.61401 61.3928 51.2445 61.3928 67.546C61.3928 83.8474 58.9821 121.05 58.9821 121.05Z" stroke="white" stroke-width="4" stroke-miterlimit="10"/>
<path d="M10.0446 12.1857H53.0357V68.8371H10.0446V12.1857Z" stroke="white" stroke-width="1.5" stroke-miterlimit="10"/>
<path d="M7.875 75.616V79.651C7.875 80.2966 8.35714 80.7808 9 80.7808H21.6964C22.5 80.7808 22.9821 79.9738 22.7411 79.3282L21.2946 75.2932C21.1339 74.8897 20.7321 74.5669 20.25 74.5669H9C8.35714 74.4862 7.875 74.9704 7.875 75.616ZM54.9643 75.7774V79.8124C54.9643 80.458 54.4821 80.9422 53.8393 80.9422H41.1429C40.3393 80.9422 39.8571 80.1352 40.0982 79.4896L41.5446 75.4546C41.7054 75.0511 42.1071 74.7283 42.5893 74.7283H53.8393C54.4821 74.6476 54.9643 75.1318 54.9643 75.7774ZM7.875 83.8474V87.8824C7.875 88.528 8.35714 89.0122 9 89.0122H21.6964C22.5 89.0122 22.9821 88.2052 22.7411 87.5596L21.2946 83.5246C21.1339 83.1211 20.7321 82.7983 20.25 82.7983H9C8.35714 82.7176 7.875 83.2018 7.875 83.8474ZM7.875 92.0788V96.1138C7.875 96.7594 8.35714 97.2436 9 97.2436H21.6964C22.5 97.2436 22.9821 96.4366 22.7411 95.791L21.2946 91.756C21.1339 91.3525 20.7321 91.0297 20.25 91.0297H9C8.35714 91.0297 7.875 91.5139 7.875 92.0788ZM7.875 100.149V104.184C7.875 104.829 8.35714 105.314 9 105.314H21.5357C22.2589 105.314 22.8214 104.507 22.5804 103.861L21.1339 99.826C20.9732 99.4225 20.5714 99.0997 20.0893 99.0997H9C8.35714 99.019 7.875 99.5839 7.875 100.149ZM39.1339 76.2616L37.2857 79.9738C37.0446 80.3773 36.6429 80.7001 36.1607 80.7001H27.0804C26.5982 80.7001 26.1964 80.458 26.0357 80.0545L23.9464 76.3423C23.4643 75.5353 24.1071 74.4862 24.9911 74.4862H38.0893C38.9732 74.4862 39.5357 75.4546 39.1339 76.2616ZM39.1339 84.5737L37.2857 88.2859C37.0446 88.6894 36.6429 89.0122 36.1607 89.0122H27.0804C26.5982 89.0122 26.1964 88.7701 26.0357 88.3666L23.9464 84.6544C23.4643 83.8474 24.1071 82.7983 24.9911 82.7983H38.0893C38.9732 82.7176 39.5357 83.686 39.1339 84.5737ZM39.1339 92.8051L37.2857 96.5173C37.0446 96.9208 36.6429 97.2436 36.1607 97.2436H27.0804C26.5982 97.2436 26.1964 97.0015 26.0357 96.598L23.9464 92.8858C23.4643 92.0788 24.1071 91.0297 24.9911 91.0297H38.0893C38.9732 91.0297 39.5357 91.9981 39.1339 92.8051ZM39.1339 101.198L37.2857 104.91C37.0446 105.314 36.6429 105.636 36.1607 105.636H27.0804C26.5982 105.636 26.1964 105.394 26.0357 104.991L23.9464 101.279C23.4643 100.472 24.1071 99.4225 24.9911 99.4225H38.0893C38.9732 99.4225 39.5357 100.391 39.1339 101.198ZM39.4554 108.945L37.9286 112.899C37.7679 113.303 37.3661 113.626 36.8839 113.626H26.1161C25.6339 113.626 25.2321 113.384 25.0714 112.899L23.4643 108.945C23.1429 108.219 23.7054 107.412 24.5089 107.412H38.4107C39.2143 107.412 39.7768 108.219 39.4554 108.945ZM54.9643 84.0088V88.0438C54.9643 88.6894 54.4821 89.1736 53.8393 89.1736H41.1429C40.3393 89.1736 39.8571 88.3666 40.0982 87.721L41.5446 83.686C41.7054 83.2825 42.1071 82.9597 42.5893 82.9597H53.8393C54.4821 82.9597 54.9643 83.4439 54.9643 84.0088ZM54.9643 92.3209V96.3559C54.9643 97.0015 54.4821 97.4857 53.8393 97.4857H41.1429C40.3393 97.4857 39.8571 96.6787 40.0982 96.0331L41.5446 91.9981C41.7054 91.5946 42.1071 91.2718 42.5893 91.2718H53.8393C54.4821 91.1911 54.9643 91.6753 54.9643 92.3209ZM54.6429 100.149V104.184C54.6429 104.829 54.1607 105.314 53.5982 105.314H41.7054C40.9821 105.314 40.5 104.507 40.7411 103.861L42.1071 99.826C42.2679 99.4225 42.6696 99.0997 43.0714 99.0997H53.5982C54.1607 99.019 54.6429 99.5839 54.6429 100.149ZM54 109.107V112.092C54 112.98 53.2768 113.706 52.3929 113.706H41.2232C40.6607 113.706 40.2589 113.142 40.4196 112.577L41.4643 109.591C41.8661 108.542 42.8304 107.815 43.9554 107.815H52.7143C53.4375 107.815 54 108.38 54 109.107ZM7.875 109.107V112.092C7.875 112.98 8.67857 113.706 9.5625 113.706H21.6964C22.3393 113.706 22.7411 113.142 22.5804 112.577L21.4554 109.591C21.0536 108.542 20.0089 107.815 18.8036 107.815H9.24107C8.51786 107.815 7.875 108.38 7.875 109.107Z" stroke="white" stroke-miterlimit="10"/>
</g>
<defs>
<clipPath id="clip0_25_82">
<rect width="63" height="166" fill="white"/>
</clipPath>
</defs>
</svg>
