<svg xmlns="http://www.w3.org/2000/svg" width="97.6" height="110"><style>.st0{fill:#fff}</style><path class="st0" d="M90.7 66.6H6.9c-3.8 0-6.9-3.1-6.9-6.9V6.9C0 3.1 3.1 0 6.9 0h83.8c3.8 0 6.9 3.1 6.9 6.9v52.8c0 3.8-3.1 6.9-6.9 6.9z"/><path fill="#402b67" d="M0 18.5h97.6v12.4H0z"/><path fill="#3bb34a" d="M9.6 44.9h34.1v10.5H9.6z"/><path class="st0" d="M32.9 98.6v2.1h-3.3v9h-2.5v-9h-3.3v-2.1h9.1zm7.7 11.1c-.1-.4-.3-.8-.4-1.2-.1-.4-.3-.8-.4-1.2h-4.3c-.1.4-.3.8-.4 1.2-.1.4-.3.8-.4 1.2h-2.6c.4-1.2.8-2.3 1.2-3.3.4-1 .7-2 1.1-2.9.4-.9.7-1.7 1.1-2.6.3-.8.7-1.6 1.1-2.4H39c.4.8.7 1.6 1.1 2.4.4.8.7 1.7 1.1 2.6.4.9.7 1.9 1.1 2.9.4 1 .8 2.1 1.2 3.3h-2.9zm-3-8.5c-.1.2-.1.4-.2.7-.1.3-.2.6-.4 1s-.3.8-.5 1.2c-.2.4-.3.9-.5 1.4h3.2c-.2-.5-.3-.9-.5-1.4-.2-.4-.3-.8-.5-1.2-.1-.4-.3-.7-.4-1s-.1-.6-.2-.7zM48 98.5c1.7 0 2.9.3 3.8.9.9.6 1.3 1.5 1.3 2.8 0 .8-.2 1.4-.5 1.9s-.9.9-1.5 1.1c.2.3.5.6.7 1 .2.4.5.7.7 1.1.2.4.5.8.7 1.2l.6 1.2H51c-.2-.4-.4-.7-.6-1.1-.2-.4-.4-.7-.6-1.1-.2-.4-.4-.7-.7-1s-.4-.6-.6-.9h-1.2v4h-2.5V98.8c.5-.1 1.1-.2 1.7-.2.5-.1 1-.1 1.5-.1zm.1 2.1h-.9v3h.7c.9 0 1.6-.1 2-.4.4-.2.6-.6.6-1.2 0-.5-.2-.9-.6-1.2-.4 0-1-.2-1.8-.2zm13.8 5.4c0 .5-.1 1.1-.2 1.5-.1.5-.3.9-.6 1.3s-.7.6-1.2.8-1.2.3-2 .3c-.7 0-1.3-.1-1.9-.3-.5-.2-1-.4-1.3-.6l.8-1.9c.3.2.6.3 1 .5s.7.2 1.2.2c.6 0 1-.1 1.3-.4.3-.3.4-.8.4-1.5v-7.2h2.5v7.3zm9.5 3.7c-.1-.4-.3-.8-.4-1.2-.1-.4-.3-.8-.4-1.2h-4.3c-.1.4-.3.8-.4 1.2-.1.4-.3.8-.4 1.2h-2.6c.4-1.2.8-2.3 1.2-3.3.4-1 .7-2 1.1-2.9.4-.9.7-1.7 1.1-2.6.3-.8.7-1.6 1.1-2.4h2.4c.4.8.7 1.6 1.1 2.4.4.8.7 1.7 1.1 2.6s.7 1.9 1.1 2.9c.4 1 .8 2.1 1.2 3.3h-2.9zm-3-8.5c-.1.2-.1.4-.2.7-.1.3-.2.6-.4 1s-.3.8-.5 1.2c-.2.4-.3.9-.5 1.4H70c-.2-.5-.3-.9-.5-1.4-.2-.4-.3-.8-.5-1.2-.1-.4-.3-.7-.4-1 0-.4-.1-.6-.2-.7z"/></svg>