<svg xmlns="http://www.w3.org/2000/svg" width="85.5" height="121.6"><style>.st0{fill:#fff}.st1{fill:none;stroke:#402b67;stroke-width:4;stroke-miterlimit:10}.st2{fill:#402b67}</style><path class="st0" d="M0 0h85.5v85.5H0z"/><path class="st1" d="M4.1 5.6h20.1v20.1H4.1z"/><path class="st2" d="M2.1 29.7h7.7v7.7H2.1zm20.2 12.2H30v7.7h-7.7zm24.3-3.3h7.7v7.7h-7.7zM1.8 50.3h7.7V58H1.8zm9-16.8h3.8v3.8h-3.8zm5.1-4.6h3.8v3.8h-3.8zM8.8 43.8h3.8v3.8H8.8zm2-5.2h3.8v3.8h-3.8zm4.9 0h3.8v3.8h-3.8zm-4.9 10.5h3.8v3.8h-3.8zm0 5.1h3.8V58h-3.8zM4.5 38.6H10v3.8H4.5z"/><path class="st2" d="M2.1 38.6h3.8v3.8H2.1zm20.2-9.7h3.8v3.8h-3.8zm0 25.3h3.8V58h-3.8zm-1.7-20.1h5.5v5.5h-5.5zm-5.4 9.6h5.5v5.5h-5.5zm.7 8.8h5.5V58h-5.5zM1.8 43.7h5.5v5.5H1.8zM28.4 3.5h7.7v7.7h-7.7zm20.1 12.2h7.7v7.7h-7.7zM28 24.1h7.7v7.7H28zm9-16.8h3.8v3.8H37zm5.2-4.6H46v3.8h-3.8zm-7.1 14.9h3.8v3.8h-3.8zm1.9-5.2h3.8v3.8H37zm4.9 0h3.8v3.8h-3.8zM37 22.8h3.8v6.4H37z"/><path class="st2" d="M37 27.9h3.8v3.8H37zm-4.5-15.5h3.8v3.8h-3.8zm-4.1 0h3.8v3.8h-3.8zm20.1-9.7h3.8v3.8h-3.8zm0 25.2h3.8v3.8h-3.8zM46.8 7.8h5.5v5.5h-5.5zm4.7 24.6H57v5.5h-5.5zm-10-14.9H47V23h-5.5zm.7 8.7h5.5v5.5h-5.5zM28 17.5h5.5V23H28zm3.3 27.7H39v7.7h-7.7zm6.3-12.5h7.7v7.7h-7.7zm12 15h7.7v7.7h-7.7zm2.8 13.4h3.8v3.8h-3.8zM41 47.7h3.8v3.8H41z"/><path class="st2" d="M52.4 55.8h3.8v7.7h-3.8zM40.8 57h3.8v3.8h-3.8zm39-31h3.8v3.8h-3.8zm-21-1.5h3.8v3.8h-3.8zM53 2.8h3.8v3.8H53zm14.2 25.4H71V32h-3.8zm-13.7-2h3.8V30h-3.8zm-9 26.5h3.8v3.8h-3.8zm10.9 14.1h3.8v3.8h-3.8zM41 41.6h3.8v3.8H41zm39.4-10h3.8v3.8h-3.8zM54.5 8.4H60v5.5h-5.5zm17.9 18.1h5.5V32h-5.5zM53.5 77.4H59v5.5h-5.5zm5.106-19.142l-.093-6.999 7-.092.092 6.999zM69.538 39.65l-.093-7 7-.092.092 7zm7.968 18.699l-.092-7 7-.092.092 7zm-15.493-8.088l-.046-3.5 3.5-.045.045 3.5zm-4.281-4.626l-.046-3.5 3.5-.046.045 3.5zm13.715 6.331l-.046-3.5 3.5-.046.046 3.5zm-4.809-1.703l-.046-3.5 3.5-.046.046 3.5zm-.07-4.548l-.047-3.5 3.5-.046.046 3.5zm9.662 4.387l-.047-3.5 3.5-.046.046 3.5zm4.624.002l-.046-3.5 3.5-.046.046 3.5zm-14.157 5.95l-.072-5.2 3.5-.049.072 5.2z"/><path class="st2" d="M66.744 58.166l-.046-3.5 3.5-.046.046 3.5zm-9.083-18.313l-.046-3.5 3.5-.046.046 3.5zm23.087-.323l-.046-3.5 3.5-.045.046 3.5zm-18.415 1.805l-.068-5.1 5.1-.067.067 5.1zm8.901 4.805l-.068-5.099 5.1-.067.067 5.1zm7.976-.77l-.068-5.1 5.1-.068.067 5.1zm-7.808 13.026l-.067-5.1 5.1-.066.067 5.099zM27.1 54.6h7.7v7.7h-7.7zm20.1 12.2h7.7v7.7h-7.7zm-20.5 8.4h7.7v7.7h-7.7zm9-16.8h3.8v3.8h-3.8zm0-5.1h3.8v3.8h-3.8zm-2.8-19.8h3.8v3.8h-3.8zm-.4 4.8h3.8v3.8h-3.8zm14.1-4.8h3.8v3.8h-3.8zM33.8 68.8h3.8v3.8h-3.8zm1.9-5.3h3.8v3.8h-3.8zm0 10.5h3.8v3.8h-3.8zm0 5.1h3.8v3.8h-3.8zm-4.5-15.6H35v3.8h-3.8zm-4.1 0h3.8v3.8h-3.8zM41 63h3.8v3.8H41z"/><path class="st2" d="M28.4 33.5h6.4v3.8h-6.4zm18.8 45.6H51v3.8h-3.8zM45.5 59H51v5.5h-5.5zm-5.3 9.6h5.5v5.5h-5.5zm.7 8.8h5.5v5.5h-5.5zm-14.2-8.8h5.5v5.5h-5.5zM10.3 11.8H18v7.7h-7.7z"/><path class="st1" d="M62.2 61.5h20.1v20.1H62.2z"/><path class="st2" d="M68.5 67.8h7.7v7.7h-7.7z"/><path class="st1" d="M63.9 5.6h17.5v17.5H63.9z"/><path class="st2" d="M69.3 11H76v6.7h-6.7z"/><path class="st1" d="M3.6 61.5h20.1v20.1H3.6z"/><path class="st2" d="M10.3 67.8H18v7.7h-7.7z"/><path class="st0" d="M18.9 113c0 .8-.1 1.5-.3 2.1-.2.6-.5 1.2-.8 1.6-.3.5-.8.9-1.2 1.2-.5.3-1 .5-1.6.7.1.2.2.4.4.5s.4.2.7.3.6.1 1 .2c.4 0 .8.1 1.2.1l-.5 1.8c-.8 0-1.5-.1-2.1-.2-.6-.1-1.1-.3-1.5-.6-.4-.2-.7-.5-1-.9-.2-.3-.4-.7-.6-1.2-.7-.1-1.3-.3-1.8-.6-.6-.3-1.1-.7-1.5-1.1-.4-.5-.7-1.1-1-1.7-.2-.7-.4-1.4-.4-2.3 0-.9.1-1.8.4-2.5.3-.7.7-1.3 1.2-1.8s1.1-.9 1.8-1.1c.7-.2 1.4-.4 2.1-.4.8 0 1.5.1 2.1.4.7.2 1.3.6 1.8 1.1.5.5.9 1.1 1.2 1.8.3.8.4 1.6.4 2.6zm-8.4 0c0 .5.1 1 .2 1.5.1.4.3.8.6 1.1.3.3.6.6.9.7.4.2.8.3 1.2.3.5 0 .9-.1 1.2-.3.4-.2.7-.4.9-.7.3-.3.4-.7.6-1.1.1-.4.2-.9.2-1.5 0-.5-.1-1-.2-1.5-.1-.4-.3-.8-.6-1.1-.3-.3-.6-.6-.9-.7-.4-.2-.8-.3-1.2-.3-.5 0-.9.1-1.2.3-.4.2-.7.4-.9.7-.3.3-.4.7-.6 1.1-.2.5-.2 1-.2 1.5zm13.8-5.7c1.7 0 2.9.3 3.8.9.9.6 1.3 1.5 1.3 2.8 0 .8-.2 1.4-.5 1.9-.4.5-.9.9-1.5 1.1.2.3.5.6.7 1 .2.4.5.7.7 1.1.2.4.5.8.7 1.2l.6 1.2h-2.8c-.2-.4-.4-.7-.6-1.1-.2-.4-.4-.7-.6-1.1s-.4-.7-.7-1l-.6-.9h-1.2v4H21v-10.9c.5-.1 1.1-.2 1.7-.2.6.1 1.1 0 1.6 0zm.1 2.2h-.9v3h.7c.9 0 1.6-.1 2-.4.4-.2.6-.6.6-1.2 0-.5-.2-.9-.6-1.2-.4-.1-1-.2-1.8-.2zm16.2 9.3c-1.8 0-3.2-.5-4.1-1.5-.9-1-1.4-2.4-1.4-4.3 0-.9.1-1.7.4-2.5.3-.7.7-1.3 1.2-1.8s1.1-.9 1.8-1.1 1.4-.4 2.3-.4c.5 0 .9 0 1.3.1s.7.1 1 .2c.3.1.5.2.7.3.2.1.3.2.4.2l-.7 2c-.3-.2-.7-.3-1.2-.5-.5-.1-1-.2-1.5-.2-.4 0-.8.1-1.1.2-.4.1-.7.3-1 .6-.3.3-.5.6-.7 1.1-.2.4-.3 1-.3 1.6 0 .5.1 1 .2 1.4.1.4.3.8.5 1.1.3.3.6.6 1 .8.4.2.9.3 1.5.3.4 0 .7 0 1-.1.3 0 .5-.1.8-.2.2-.1.4-.1.6-.2s.3-.1.5-.2l.7 2c-.4.2-.8.4-1.5.6-.8.4-1.6.5-2.4.5zm15.5-5.8c0 .9-.1 1.8-.4 2.5-.3.7-.7 1.3-1.2 1.8s-1.1.9-1.8 1.1c-.7.2-1.4.4-2.2.4-.8 0-1.5-.1-2.1-.4-.7-.2-1.3-.6-1.8-1.1-.5-.5-.9-1.1-1.2-1.8-.3-.7-.4-1.6-.4-2.5 0-.9.1-1.8.4-2.5.3-.7.7-1.3 1.2-1.8s1.1-.9 1.8-1.1c.7-.2 1.4-.4 2.1-.4.8 0 1.5.1 2.1.4.7.2 1.3.6 1.8 1.1.5.5.9 1.1 1.2 1.8.3.7.5 1.5.5 2.5zm-8.5 0c0 .5.1 1 .2 1.5.1.4.3.8.6 1.1.3.3.6.6.9.7.4.2.8.3 1.2.3.5 0 .9-.1 1.2-.3.4-.2.7-.4.9-.7.3-.3.4-.7.6-1.1.1-.4.2-.9.2-1.5 0-.5-.1-1-.2-1.5-.1-.4-.3-.8-.6-1.1-.3-.3-.6-.6-.9-.7-.4-.2-.8-.3-1.2-.3-.5 0-.9.1-1.2.3-.4.2-.7.4-.9.7-.3.3-.4.7-.6 1.1-.1.5-.2 1-.2 1.5zm20.3 0c0 1-.1 1.8-.4 2.5-.3.7-.7 1.3-1.3 1.8-.5.5-1.2.8-2 1.1-.8.2-1.7.4-2.7.4-.4 0-1 0-1.6-.1-.6 0-1.2-.1-1.8-.2v-10.8c.6-.1 1.2-.2 1.8-.2.6 0 1.2-.1 1.6-.1.9 0 1.8.1 2.6.3.8.2 1.4.5 2 1 .6.5 1 1 1.3 1.8.3.6.5 1.5.5 2.5zm-7.3 3.5h1c1.2 0 2.2-.3 2.8-.9.6-.6.9-1.5.9-2.6 0-1.2-.3-2-.9-2.6-.6-.6-1.5-.9-2.7-.9h-1v7zm9.3 2v-11.1h7.5v2.1h-5v2.2h4.4v2h-4.4v2.7h5.4v2.1h-7.9z"/></svg>