<svg width="66" height="169" viewBox="0 0 66 169" fill="none" xmlns="http://www.w3.org/2000/svg">
<g clip-path="url(#clip0_25_93)">
<path d="M20.4074 169C20.1644 168.355 20.0025 167.629 19.7595 166.983C19.5166 166.257 19.2736 165.612 19.0307 164.886H11.5804C11.3374 165.612 11.0945 166.257 10.8515 166.983C10.6086 167.709 10.3656 168.355 10.2037 169H5.74969C6.47853 166.983 7.12638 165.047 7.77424 163.353C8.42209 161.659 9.06994 159.965 9.63681 158.432C10.2847 156.9 10.8515 155.448 11.4184 154.076C11.9853 152.705 12.6331 151.334 13.281 150.043H17.3301C17.9779 151.334 18.5448 152.705 19.1926 154.076C19.7595 155.448 20.4074 156.9 21.0552 158.432C21.7031 159.965 22.2699 161.578 22.9178 163.353C23.5656 165.047 24.2135 166.983 24.9423 169H20.4074ZM15.3055 154.399C15.2245 154.641 15.0626 155.044 14.9006 155.528C14.7387 156.012 14.4957 156.577 14.2528 157.142C14.0098 157.787 13.7669 158.432 13.4429 159.158C13.119 159.884 12.8761 160.691 12.5521 161.498H17.9779C17.654 160.691 17.411 159.884 17.1681 159.158C16.9252 158.432 16.6012 157.706 16.3583 157.142C16.1153 156.496 15.8724 156.012 15.7104 155.528C15.5485 155.044 15.3865 154.641 15.3055 154.399ZM33.1215 149.882C35.9558 149.882 38.1423 150.366 39.681 151.334C41.2196 152.302 41.9485 153.915 41.9485 156.174C41.9485 158.432 41.2196 160.126 39.681 161.094C38.1423 162.143 35.9558 162.627 33.1215 162.627H31.7448V169H27.4528V150.366C28.4245 150.204 29.3963 150.043 30.4491 149.962C31.4209 149.882 32.3926 149.882 33.1215 149.882ZM33.4454 153.512H32.5546C32.2307 153.512 31.9877 153.512 31.7448 153.592V159.078H33.1215C34.5791 159.078 35.7129 158.916 36.4417 158.513C37.1706 158.11 37.5755 157.384 37.5755 156.254C37.5755 155.69 37.4945 155.286 37.2515 154.964C37.0086 154.641 36.7656 154.318 36.4417 154.157C36.1178 153.915 35.6319 153.834 35.146 153.754C34.5791 153.592 34.0123 153.512 33.4454 153.512ZM50.7755 149.882C53.6098 149.882 55.7963 150.366 57.335 151.334C58.8736 152.302 59.6025 153.915 59.6025 156.174C59.6025 158.432 58.8736 160.126 57.335 161.094C55.7963 162.143 53.6098 162.627 50.7755 162.627H49.3988V169H45.1068V150.366C46.0785 150.204 47.0503 150.043 48.1031 149.962C49.0749 149.882 50.0466 149.882 50.7755 149.882ZM51.0994 153.512H50.2086C49.8847 153.512 49.6417 153.512 49.3988 153.592V159.078H50.7755C52.2331 159.078 53.3669 158.916 54.0957 158.513C54.8245 158.11 55.2294 157.384 55.2294 156.254C55.2294 155.69 55.1485 155.286 54.9055 154.964C54.6626 154.641 54.4196 154.318 54.0957 154.157C53.7718 153.915 53.2859 153.834 52.8 153.754C52.2331 153.592 51.6663 153.512 51.0994 153.512Z" fill="#71BE44"/>
<path d="M57.173 120.518H8.90797C4.93987 120.518 1.61963 117.292 1.61963 113.258V8.87355C1.61963 4.84013 4.85889 1.6134 8.90797 1.6134H57.173C61.1411 1.6134 64.4613 4.84013 64.4613 8.87355V113.339C64.3804 117.292 61.1411 120.518 57.173 120.518Z" stroke="white" stroke-width="4" stroke-miterlimit="10"/>
<path d="M53.9337 102.368H12.0662C9.63678 102.368 7.61224 100.432 7.61224 97.9313V12.2616C7.61224 9.84154 9.5558 7.82483 12.0662 7.82483H53.9337C56.3632 7.82483 58.3877 9.76087 58.3877 12.2616V97.9313C58.3877 100.351 56.3632 102.368 53.9337 102.368ZM37.4135 111.806C37.4135 114.226 35.4699 116.243 32.9595 116.243C30.4491 116.243 28.5055 114.307 28.5055 111.806C28.5055 109.306 30.4491 107.369 32.9595 107.369C35.4699 107.369 37.4135 109.386 37.4135 111.806Z" stroke="white" stroke-miterlimit="10"/>
<path d="M38.3853 61.4692H27.6147C27.0478 61.4692 26.562 60.9852 26.562 60.4205V49.6916C26.562 49.127 27.0478 48.6429 27.6147 48.6429H38.3853C38.9521 48.6429 39.438 49.127 39.438 49.6916V60.4205C39.438 60.9852 38.9521 61.4692 38.3853 61.4692Z" fill="white"/>
<path d="M33.7693 50.9823C34.2552 50.9823 34.6601 51.063 35.065 51.1436C35.4699 51.2243 35.7938 51.3856 36.0368 51.547C36.2797 51.7083 36.5227 51.9503 36.6037 52.273C36.7656 52.515 36.8466 52.8377 36.8466 53.1603C36.8466 53.725 36.7656 54.209 36.5227 54.6124C36.2797 55.0157 36.0368 55.3384 35.6319 55.5804C35.227 55.8224 34.8221 55.9837 34.2552 56.0644C33.7693 56.1451 33.2024 56.2257 32.5546 56.2257H32.1497L31.5018 58.8071H29.8012L31.6638 51.2243C32.0687 51.1436 32.4736 51.063 32.7975 51.063C33.1215 50.9823 33.4454 50.9823 33.7693 50.9823ZM33.6073 52.4343H33.0405L32.4736 54.693H32.8785C33.2024 54.693 33.4454 54.693 33.7693 54.6124C34.0123 54.5317 34.2552 54.451 34.4172 54.3704C34.5791 54.2897 34.7411 54.1284 34.8221 53.967C34.903 53.8057 34.984 53.5637 34.984 53.3217C34.984 52.999 34.8221 52.757 34.6601 52.5957C34.4172 52.515 34.0932 52.4343 33.6073 52.4343Z" fill="#402B67"/>
<path d="M21.4601 39.9308H12.0663C11.0945 39.9308 10.3657 39.1241 10.3657 38.2367V28.8792C10.3657 27.9112 11.1755 27.1852 12.0663 27.1852H21.4601C22.4319 27.1852 23.1608 27.9919 23.1608 28.8792V38.2367C23.2417 39.2048 22.4319 39.9308 21.4601 39.9308ZM37.5755 39.9308H28.1816C27.2098 39.9308 26.481 39.1241 26.481 38.2367V28.8792C26.481 27.9112 27.2908 27.1852 28.1816 27.1852H37.5755C38.5473 27.1852 39.2761 27.9919 39.2761 28.8792V38.2367C39.2761 39.2048 38.5473 39.9308 37.5755 39.9308ZM53.2859 39.9308H43.7301C42.8393 39.9308 42.1104 39.2048 42.1104 38.3174V28.7985C42.1104 27.9112 42.8393 27.1852 43.7301 27.1852H53.2859C54.1767 27.1852 54.9055 27.9112 54.9055 28.7985V38.3174C54.9865 39.2048 54.2577 39.9308 53.2859 39.9308ZM21.7031 83.0883H12.3092C11.3374 83.0883 10.6086 82.2816 10.6086 81.3942V71.9561C10.6086 70.988 11.4184 70.262 12.3092 70.262H21.7031C22.6749 70.262 23.4037 71.0687 23.4037 71.9561V81.3136C23.4037 82.2816 22.6749 83.0883 21.7031 83.0883ZM37.7374 83.0883H28.3436C27.3718 83.0883 26.643 82.2816 26.643 81.3942V71.9561C26.643 70.988 27.4528 70.262 28.3436 70.262H37.7374C38.7092 70.262 39.4381 71.0687 39.4381 71.9561V81.3136C39.4381 82.2816 38.7092 83.0883 37.7374 83.0883ZM53.5289 83.0883H43.892C43.0012 83.0883 42.2724 82.3623 42.2724 81.4749V71.8754C42.2724 70.988 43.0012 70.262 43.892 70.262H53.4479C54.3387 70.262 55.0675 70.988 55.0675 71.8754V81.3942C55.1485 82.3623 54.4196 83.0883 53.5289 83.0883ZM53.2859 61.1465H43.7301C42.8393 61.1465 42.1104 60.4205 42.1104 59.5332V50.0143C42.1104 49.1269 42.8393 48.4009 43.7301 48.4009H53.2859C54.1767 48.4009 54.9055 49.1269 54.9055 50.0143V59.5332C54.9865 60.4205 54.2577 61.1465 53.2859 61.1465ZM21.6221 61.1465H11.9853C11.0945 61.1465 10.3657 60.4205 10.3657 59.5332V50.0143C10.3657 49.1269 11.0945 48.4009 11.9853 48.4009H21.5411C22.4319 48.4009 23.1608 49.1269 23.1608 50.0143V59.5332C23.2417 60.4205 22.5129 61.1465 21.6221 61.1465Z" stroke="white" stroke-miterlimit="10"/>
</g>
<defs>
<clipPath id="clip0_25_93">
<rect width="66" height="169" fill="white"/>
</clipPath>
</defs>
</svg>
