<svg width="86" height="146" viewBox="0 0 86 146" fill="none" xmlns="http://www.w3.org/2000/svg">
<g clip-path="url(#clip0_25_88)">
<path d="M27.5393 128.819C27.7809 129.545 28.0225 130.432 28.264 131.319C28.5056 132.287 28.8277 133.255 29.0693 134.223C29.3109 135.191 29.633 136.24 29.9551 137.208C30.2772 138.176 30.5993 139.144 30.8408 140.031C31.0824 139.063 31.324 138.095 31.5655 136.966L32.2903 133.578C32.5318 132.449 32.6929 131.239 32.9345 130.109C33.176 128.98 33.3371 127.851 33.4981 126.802H37.927C37.2828 129.948 36.5581 133.175 35.7528 136.482C34.9476 139.708 33.9813 142.854 33.015 145.758H29.1498C28.5056 143.983 27.8614 142.209 27.2978 140.273C26.7341 138.337 26.0899 136.401 25.5262 134.465C24.9625 136.401 24.3989 138.337 23.7547 140.273C23.191 142.209 22.5468 144.064 21.9026 145.758H18.0375C17.0712 142.854 16.1854 139.708 15.3802 136.482C14.5749 133.255 13.8502 130.029 13.206 126.802H17.7959C17.9569 127.851 18.1985 128.98 18.3596 130.109C18.6011 131.239 18.8427 132.449 19.0843 133.578L19.809 136.966C20.0506 138.095 20.2921 139.063 20.5337 140.031C20.8558 139.144 21.1779 138.176 21.5 137.208C21.8221 136.24 22.1442 135.191 22.3858 134.223C22.7079 133.255 22.9494 132.287 23.191 131.319C23.4326 130.351 23.6742 129.545 23.8352 128.819H27.5393ZM40.6648 145.758V126.802H53.3876V130.351H44.9326V134.062H52.5019V137.53H44.9326V142.128H54.0318V145.677H40.6648V145.758ZM63.5337 146C62.4869 146 61.4401 146 60.4738 145.919C59.427 145.839 58.3801 145.677 57.2528 145.435V127.044C58.1386 126.883 59.1049 126.722 60.1517 126.641C61.1985 126.56 62.1648 126.48 63.0506 126.48C64.2584 126.48 65.3858 126.56 66.3521 126.722C67.3184 126.883 68.2041 127.206 68.9288 127.609C69.6536 128.012 70.2172 128.577 70.6198 129.222C71.0225 129.867 71.264 130.755 71.264 131.723C71.264 133.255 70.5393 134.465 69.0899 135.272C70.2978 135.756 71.103 136.32 71.5056 137.127C71.9082 137.934 72.1498 138.821 72.1498 139.789C72.1498 141.806 71.4251 143.258 69.9757 144.306C68.5262 145.516 66.3521 146 63.5337 146ZM61.3595 134.223H63.4532C64.7416 134.223 65.7079 134.062 66.2715 133.739C66.8352 133.417 67.0768 132.852 67.0768 132.126C67.0768 131.4 66.7547 130.835 66.191 130.513C65.6273 130.19 64.7416 130.029 63.6142 130.029H62.4064C62.0037 130.029 61.6011 130.029 61.279 130.109V134.223H61.3595ZM61.3595 137.53V142.451C61.6816 142.451 62.0037 142.532 62.4064 142.532H63.6142C64.9026 142.532 65.9494 142.37 66.6742 141.967C67.4794 141.564 67.882 140.918 67.882 139.95C67.882 139.063 67.5599 138.418 66.9157 138.095C66.2715 137.692 65.3052 137.53 64.0974 137.53H61.3595Z" fill="#71BE44"/>
<path d="M43 84.5348C65.8588 84.5348 84.3895 65.9722 84.3895 43.0741C84.3895 20.1759 65.8588 1.61328 43 1.61328C20.1412 1.61328 1.61047 20.1759 1.61047 43.0741C1.61047 65.9722 20.1412 84.5348 43 84.5348Z" stroke="white" stroke-width="4" stroke-miterlimit="10"/>
<path d="M43 84.5348C57.6759 84.5348 69.573 65.9722 69.573 43.0741C69.573 20.1759 57.6759 1.61328 43 1.61328C28.3241 1.61328 16.4269 20.1759 16.4269 43.0741C16.4269 65.9722 28.3241 84.5348 43 84.5348Z" stroke="white" stroke-width="1.5" stroke-miterlimit="10"/>
<path d="M43 1.61328V83.2442M83.7453 42.4287H2.25467M79.7996 24.1183H6.20036M78.7528 63.8851H7.16665" stroke="white" stroke-width="1.5" stroke-miterlimit="10"/>
</g>
<defs>
<clipPath id="clip0_25_88">
<rect width="86" height="146" fill="white"/>
</clipPath>
</defs>
</svg>
