<svg width="323" height="54" viewBox="0 0 323 54" fill="none" xmlns="http://www.w3.org/2000/svg">
<g clip-path="url(#clip0_16_48)">
<path d="M239.4 4.89998C240.1 3.09998 239.3 0.999981 237.4 0.199981C235.6 -0.500019 233.5 0.299981 232.7 2.19998L214 48.2C213.3 50 214.1 52.1 216 52.9C217.8 53.6 219.9 52.8 220.7 50.9L239.4 4.89998Z" fill="white"/>
<path d="M132.1 7.00003C130.1 7.00003 128.5 8.60003 128.5 10.6V26.6L110.9 8.30003C109.7 6.80003 107.6 6.50003 106.1 7.60003C106 7.60003 106 7.70003 105.9 7.70003L105.8 7.80003C105.7 7.80003 105.7 7.90003 105.6 7.90003L105.4 8.10003C104.9 8.70003 104.6 9.50003 104.6 10.4V42.6C104.6 44.6 106.2 46.2 108.2 46.2C110.2 46.2 111.8 44.6 111.8 42.6V20.6L128.6 37.8V42.5C128.6 44.5 130.2 46.1 132.2 46.1C134.2 46.1 135.8 44.5 135.8 42.5V10.3C135.7 8.60003 134.1 7.00003 132.1 7.00003ZM165 21.4H158.1C156.1 21.4 154.5 23 154.5 25C154.5 27 156.1 28.6 158.1 28.6H165C167 28.6 168.6 27 168.6 25C168.6 23 167 21.4 165 21.4Z" fill="#71BE44"/>
<path d="M191.8 14.1H205.3C207.3 14.1 208.9 12.5 208.9 10.5C208.9 8.50002 207.3 6.90002 205.3 6.90002H158.4C149.8 6.90002 142.9 13.9 142.9 22.5V30.6C142.9 39.2 149.9 46.1 158.4 46.1H170.4C172.4 46.1 174 44.5 174 42.5C174 40.5 172.4 38.9 170.4 38.9H158.4C153.7 38.9 150 35.1 150 30.5V22.4C150 17.8 153.8 14 158.4 14H184.7V42.5C184.7 44.5 186.3 46.1 188.3 46.1C190.3 46.1 191.9 44.5 191.9 42.5V14.1H191.8ZM91.3 8.00002L81.8 17.5L72.3 8.00002C70.9 6.60002 68.6 6.60002 67.2 8.00002C65.8 9.40002 65.8 11.7 67.2 13.1L78.2 24.1V42.7C78.2 44.7 79.8 46.3 81.8 46.3C83.8 46.3 85.4 44.7 85.4 42.7V24L96.4 13C97.8 11.6 97.8 9.30002 96.4 7.90002C94.9 6.60002 92.7 6.60002 91.3 8.00002ZM57.4 12.9C56.6 10.7 54 7.00002 49 7.00002C43.7 7.00002 41.1 10.9 40.5 13L31.4 41.6C30.8 43.5 31.8 45.5 33.7 46.1C34.1 46.2 34.5 46.3 34.8 46.3C36.3 46.3 37.7 45.4 38.2 43.9L47.4 15.3V15.2C47.4 15.2 47.7 14.2 49.1 14.2C50.2 14.2 50.6 15 50.8 15.4L59.4 43.9C60 45.8 62.1 46.8 63.9 46.2C65.8 45.6 66.8 43.5 66.2 41.7L57.4 12.9ZM15.5 27.1C20.1 27.1 23.9 25.3 23.9 20.6C23.9 16 20.2 14.2 15.7 14.1H3.49999C1.49999 14.1 -0.100006 12.5 -0.100006 10.5C-6.10203e-06 8.60002 1.59999 7.00002 3.59999 7.00002H15.6C24.2 7.00002 31.2 12.1 31.2 20.7C31.2 29.3 24.2 34.3 15.6 34.3H7.19999V42.7C7.19999 44.7 5.59999 46.3 3.59999 46.3C1.59999 46.3 -6.10203e-06 44.6 -6.10203e-06 42.7V27.1H15.5Z" fill="#71BE44"/>
<path d="M248 13.2H250.2L247.8 23.1H245.6L248 13.2ZM251.8 15.9C252 15.9 252.1 15.8 252.3 15.7C252.5 15.6 252.7 15.6 253 15.5C253.2 15.4 253.5 15.4 253.8 15.4H254.8C255.9 15.4 256.7 15.7 257.1 16.4C257.5 17 257.6 17.9 257.3 19.1L256.3 23.2H254.2L255.1 19.2C255.2 19 255.2 18.7 255.2 18.5V17.9C255.2 17.7 255.1 17.6 254.9 17.5C254.8 17.4 254.6 17.3 254.3 17.3C254 17.3 253.7 17.3 253.5 17.4L252.1 23.2H250L251.8 15.9ZM260.2 13.7L262.4 13.4L261.9 15.6H264.3L263.9 17.3H261.5L260.9 19.9C260.8 20.1 260.8 20.3 260.8 20.5C260.8 20.7 260.8 20.9 260.9 21L261.2 21.3C261.4 21.4 261.6 21.4 261.8 21.4C262 21.4 262.3 21.4 262.5 21.3C262.7 21.3 262.9 21.2 263.2 21.1L263.4 22.7L262.5 23C262.2 23.1 261.8 23.1 261.3 23.1C260.6 23.1 260.1 23 259.8 22.8C259.4 22.6 259.2 22.3 259 22C258.8 21.7 258.8 21.3 258.8 20.8C258.8 20.4 258.9 19.9 259 19.4L260.2 13.7ZM264.3 20.1C264.3 19.5 264.4 18.9 264.6 18.3C264.8 17.7 265.1 17.2 265.5 16.8C265.9 16.4 266.4 16 266.9 15.7C267.5 15.4 268.1 15.3 268.8 15.3C269.1 15.3 269.4 15.3 269.7 15.4C270 15.5 270.2 15.6 270.5 15.8C270.7 16 270.9 16.2 271 16.5C271.1 16.8 271.2 17.1 271.2 17.4C271.2 17.9 271.1 18.4 270.8 18.8C270.6 19.2 270.2 19.5 269.8 19.7C269.4 19.9 268.9 20.1 268.3 20.2C267.7 20.3 267.1 20.4 266.4 20.4C266.5 20.8 266.6 21.1 266.8 21.3C267 21.5 267.4 21.5 267.9 21.5C268.2 21.5 268.5 21.5 268.8 21.4C269.1 21.3 269.4 21.3 269.7 21.2L269.9 22.9C269.6 23 269.3 23.1 268.9 23.2C268.5 23.3 268 23.3 267.5 23.3C266.9 23.3 266.4 23.2 266 23.1C265.6 22.9 265.3 22.7 265 22.4C264.7 22.1 264.6 21.8 264.5 21.4C264.4 21 264.3 20.6 264.3 20.1ZM268.5 17C268 17 267.6 17.2 267.2 17.5C266.8 17.8 266.6 18.3 266.5 18.9C267.1 18.9 267.6 18.8 267.9 18.8C268.3 18.7 268.5 18.6 268.7 18.5C268.9 18.4 269 18.3 269.1 18.1C269.2 18 269.2 17.8 269.2 17.7C269.2 17.3 269 17 268.5 17ZM274.6 23.2C273.9 23.2 273.4 23.1 273 22.9C272.6 22.7 272.3 22.5 272.2 22.2C272 21.9 272 21.5 272 21.1C272 20.7 272.1 20.3 272.2 19.8L274 12.2L276.2 11.9L274.2 20.1C274.2 20.3 274.1 20.4 274.1 20.6C274.1 20.7 274.1 20.9 274.2 21L274.5 21.3C274.6 21.4 274.8 21.4 275.1 21.4L274.6 23.2ZM278.1 23.1H276L277.8 15.6H279.9L278.1 23.1ZM279.1 14.6C278.8 14.6 278.5 14.5 278.3 14.3C278.1 14.1 277.9 13.9 277.9 13.5C277.9 13.3 277.9 13.1 278 12.9C278.1 12.7 278.2 12.6 278.3 12.4C278.4 12.3 278.6 12.2 278.8 12.1C279 12 279.2 12 279.4 12C279.7 12 280 12.1 280.2 12.3C280.4 12.5 280.6 12.7 280.6 13.1C280.6 13.3 280.6 13.5 280.5 13.7C280.4 13.9 280.3 14 280.2 14.2C280.1 14.3 279.9 14.4 279.7 14.5C279.5 14.6 279.3 14.6 279.1 14.6ZM286.5 22.1C286.4 22.7 286.2 23.3 285.9 23.7C285.7 24.2 285.4 24.5 285 24.8C284.7 25.1 284.2 25.3 283.7 25.5C283.2 25.6 282.6 25.7 282 25.7C281.4 25.7 280.9 25.6 280.5 25.5C280.1 25.4 279.7 25.3 279.4 25.1L280.1 23.4L281 23.7C281.3 23.8 281.7 23.8 282.2 23.8C282.8 23.8 283.3 23.7 283.6 23.4C283.9 23.1 284.1 22.8 284.2 22.3L284.3 22C284.1 22.1 283.9 22.2 283.7 22.2C283.5 22.3 283.3 22.3 283 22.3C282.6 22.3 282.2 22.2 281.8 22.1C281.5 22 281.2 21.8 281 21.5C280.8 21.3 280.6 21 280.5 20.6C280.4 20.3 280.3 19.9 280.3 19.5C280.3 18.8 280.4 18.1 280.7 17.6C281 17 281.3 16.6 281.8 16.2C282.2 15.8 282.8 15.5 283.3 15.4C283.9 15.2 284.5 15.1 285.1 15.1C285.6 15.1 286 15.1 286.5 15.2C286.9 15.3 287.4 15.4 287.8 15.6L286.5 22.1ZM285.5 17.2C285.3 17.2 285.1 17.1 284.9 17.1C284.5 17.1 284.2 17.2 283.9 17.3C283.6 17.4 283.4 17.6 283.2 17.8C283 18 282.8 18.3 282.7 18.6C282.6 18.9 282.5 19.2 282.5 19.6V20.1C282.5 20.2 282.6 20.4 282.7 20.5L283 20.8C283.1 20.9 283.3 20.9 283.5 20.9C283.6 20.9 283.8 20.9 284 20.8C284.2 20.8 284.4 20.6 284.6 20.5L285.5 17.2ZM288.5 20.1C288.5 19.5 288.6 18.9 288.8 18.3C289 17.7 289.3 17.2 289.7 16.8C290.1 16.4 290.6 16 291.1 15.7C291.7 15.4 292.3 15.3 293 15.3C293.3 15.3 293.6 15.3 293.9 15.4C294.2 15.5 294.4 15.6 294.7 15.8C294.9 16 295.1 16.2 295.2 16.5C295.3 16.8 295.4 17.1 295.4 17.4C295.4 17.9 295.3 18.4 295 18.8C294.8 19.2 294.4 19.5 294 19.7C293.6 19.9 293.1 20.1 292.5 20.2C291.9 20.3 291.3 20.4 290.6 20.4C290.7 20.8 290.8 21.1 291 21.3C291.2 21.5 291.6 21.5 292.1 21.5C292.4 21.5 292.7 21.5 293 21.4C293.3 21.3 293.6 21.3 293.9 21.2L294.1 22.9C293.8 23 293.5 23.1 293.1 23.2C292.7 23.3 292.2 23.3 291.7 23.3C291.1 23.3 290.6 23.2 290.2 23.1C289.8 22.9 289.5 22.7 289.2 22.4C288.9 22.1 288.8 21.8 288.7 21.4C288.6 21 288.5 20.6 288.5 20.1ZM292.7 17C292.2 17 291.8 17.2 291.4 17.5C291 17.8 290.8 18.3 290.7 18.9C291.3 18.9 291.8 18.8 292.1 18.8C292.5 18.7 292.7 18.6 292.9 18.5C293.1 18.4 293.2 18.3 293.3 18.1C293.4 17.9 293.4 17.8 293.4 17.7C293.5 17.3 293.2 17 292.7 17ZM295.3 14.1L294.4 14.9L293.2 13.8L291.6 14.9L290.9 14L293.5 11.9L295.3 14.1ZM297.4 15.9C297.6 15.9 297.7 15.8 297.9 15.7C298.1 15.6 298.3 15.6 298.6 15.5C298.8 15.4 299.1 15.4 299.4 15.4H300.4C301.5 15.4 302.3 15.7 302.7 16.4C303.1 17 303.2 17.9 302.9 19.1L301.9 23.2H299.8L300.7 19.2C300.8 19 300.8 18.7 300.8 18.5V17.9C300.8 17.7 300.7 17.6 300.5 17.5C300.4 17.4 300.2 17.3 299.9 17.3C299.6 17.3 299.3 17.3 299.1 17.4L297.7 23.2H295.6L297.4 15.9ZM304.2 20.1C304.2 19.5 304.3 18.8 304.5 18.3C304.7 17.7 305 17.2 305.4 16.8C305.8 16.4 306.3 16 306.8 15.8C307.4 15.6 308 15.4 308.7 15.4C309.1 15.4 309.5 15.4 309.9 15.5L310.8 15.8L310.1 17.5C309.9 17.4 309.7 17.4 309.5 17.3C309.3 17.2 309 17.2 308.7 17.2C308 17.2 307.4 17.4 307 17.9C306.6 18.4 306.4 19 306.4 19.9C306.4 20.4 306.5 20.8 306.7 21.1C306.9 21.4 307.3 21.6 307.9 21.6C308.2 21.6 308.4 21.6 308.7 21.5C309 21.4 309.2 21.4 309.4 21.3L309.6 23L308.7 23.3C308.4 23.4 308 23.4 307.5 23.4C306.9 23.4 306.4 23.3 306 23.1C305.6 22.9 305.3 22.7 305 22.4C304.7 22.1 304.5 21.8 304.4 21.4C304.3 20.9 304.2 20.5 304.2 20.1ZM312.8 23.1H310.7L312.5 15.6H314.6L312.8 23.1ZM313.8 14.6C313.5 14.6 313.2 14.5 313 14.3C312.8 14.1 312.6 13.9 312.6 13.5C312.6 13.3 312.6 13.1 312.7 12.9C312.8 12.7 312.9 12.6 313 12.4C313.1 12.3 313.3 12.2 313.5 12.1C313.7 12 313.9 12 314.1 12C314.4 12 314.7 12.1 314.9 12.3C315.1 12.5 315.3 12.7 315.3 13.1C315.3 13.3 315.3 13.5 315.2 13.7C315.1 13.9 315 14 314.9 14.2C314.8 14.3 314.6 14.4 314.4 14.5C314.2 14.6 314 14.6 313.8 14.6ZM321.7 19.8C321.6 20.3 321.5 20.9 321.6 21.4L321.9 22.9L320 23.2C319.9 23.1 319.9 23 319.8 22.9C319.7 22.8 319.7 22.7 319.7 22.5C319.4 22.7 319.1 22.9 318.8 23C318.5 23.1 318.1 23.2 317.7 23.2C317.2 23.2 316.8 23.1 316.5 23C316.2 22.8 315.9 22.6 315.7 22.3C315.5 22 315.3 21.7 315.2 21.3C315.1 20.9 315.1 20.5 315.1 20.1C315.1 19.4 315.2 18.8 315.5 18.2C315.7 17.6 316.1 17.1 316.5 16.7C316.9 16.3 317.4 15.9 318 15.7C318.6 15.5 319.2 15.3 319.8 15.3H320.3C320.5 15.3 320.8 15.3 321 15.4C321.3 15.4 321.6 15.5 321.9 15.6L322.8 15.9L321.7 19.8ZM320.2 17.2H319.5C319.2 17.2 318.9 17.3 318.6 17.4C318.3 17.6 318.1 17.8 317.9 18C317.7 18.3 317.5 18.6 317.4 18.9C317.3 19.2 317.2 19.6 317.2 20C317.2 20.5 317.3 20.8 317.4 21.1C317.6 21.4 317.8 21.5 318.2 21.5C318.4 21.5 318.6 21.5 318.8 21.4C319 21.3 319.2 21.2 319.4 21C319.4 20.8 319.5 20.5 319.5 20.2C319.5 19.9 319.6 19.7 319.6 19.5L320.2 17.2ZM246 36.1C246 35.5 246.1 34.9 246.3 34.3C246.5 33.7 246.8 33.2 247.2 32.8C247.6 32.4 248.1 32 248.6 31.7C249.2 31.4 249.8 31.3 250.5 31.3C250.8 31.3 251.1 31.3 251.4 31.4C251.7 31.5 251.9 31.6 252.2 31.8C252.4 32 252.6 32.2 252.7 32.5C252.8 32.8 252.9 33.1 252.9 33.4C252.9 33.9 252.8 34.4 252.5 34.8C252.3 35.2 251.9 35.5 251.5 35.7C251.1 35.9 250.6 36.1 250 36.2C249.4 36.3 248.8 36.4 248.1 36.4C248.2 36.8 248.3 37.1 248.5 37.3C248.7 37.5 249.1 37.5 249.6 37.5C249.9 37.5 250.2 37.5 250.5 37.4C250.8 37.3 251.1 37.3 251.4 37.2L251.6 38.9C251.3 39 251 39.1 250.6 39.2C250.2 39.3 249.7 39.3 249.2 39.3C248.6 39.3 248.1 39.2 247.7 39.1C247.3 38.9 247 38.7 246.7 38.4C246.4 38.1 246.3 37.8 246.2 37.4C246.1 37 246 36.5 246 36.1ZM250.2 33C249.7 33 249.3 33.2 248.9 33.5C248.5 33.8 248.3 34.3 248.2 34.9C248.8 34.9 249.3 34.8 249.6 34.8C250 34.7 250.2 34.6 250.4 34.5C250.6 34.4 250.7 34.3 250.8 34.1C250.9 34 250.9 33.8 250.9 33.7C250.9 33.3 250.7 33 250.2 33ZM254.9 31.9C255.1 31.9 255.2 31.8 255.4 31.7C255.6 31.6 255.8 31.6 256 31.5C256.2 31.4 256.5 31.4 256.8 31.4H257.8C258.3 31.4 258.6 31.5 258.9 31.6C259.2 31.7 259.5 31.9 259.7 32.1C260.1 31.9 260.4 31.7 260.8 31.6C261.1 31.5 261.6 31.4 262 31.4C262.4 31.4 262.8 31.5 263.2 31.6C263.5 31.7 263.8 31.9 264 32.1C264.2 32.3 264.4 32.6 264.5 32.9C264.6 33.2 264.6 33.6 264.6 33.9V34.4C264.6 34.6 264.5 34.8 264.5 35L263.5 39.1H261.4L262.3 35.1C262.3 35 262.4 34.8 262.4 34.6V34.1C262.4 33.8 262.3 33.6 262.2 33.4C262.1 33.2 261.8 33.1 261.5 33.1C261.3 33.1 261.1 33.1 260.9 33.2C260.7 33.3 260.6 33.3 260.4 33.4V34.3C260.4 34.5 260.3 34.7 260.3 34.9L259.3 39H257.2L258.1 35C258.1 34.9 258.2 34.7 258.2 34.5V34C258.2 33.7 258.1 33.5 258 33.3C257.9 33.1 257.6 33 257.3 33H256.9C256.8 33 256.7 33 256.5 33.1L255.1 38.9H253L254.9 31.9ZM269.1 36.1C269.1 35.5 269.2 34.8 269.4 34.3C269.6 33.7 269.9 33.2 270.3 32.8C270.7 32.4 271.2 32 271.7 31.8C272.3 31.6 272.9 31.4 273.6 31.4C274 31.4 274.4 31.4 274.8 31.5L275.7 31.8L275 33.5C274.8 33.4 274.6 33.4 274.4 33.3C274.2 33.2 273.9 33.2 273.6 33.2C272.9 33.2 272.3 33.4 271.9 33.9C271.5 34.4 271.3 35 271.3 35.9C271.3 36.4 271.4 36.8 271.6 37.1C271.8 37.4 272.2 37.6 272.8 37.6C273.1 37.6 273.3 37.6 273.6 37.5C273.9 37.4 274.1 37.4 274.3 37.3L274.5 39L273.6 39.3C273.3 39.4 272.9 39.4 272.4 39.4C271.8 39.4 271.3 39.3 270.9 39.1C270.5 38.9 270.2 38.7 269.9 38.4C269.6 38.1 269.4 37.8 269.3 37.4C269.2 36.9 269.1 36.5 269.1 36.1ZM282.3 35.8C282.2 36.3 282.1 36.9 282.2 37.4L282.5 38.9L280.6 39.2C280.5 39.1 280.5 39 280.4 38.9C280.4 38.8 280.3 38.7 280.3 38.5C280 38.7 279.7 38.9 279.4 39C279.1 39.1 278.7 39.2 278.3 39.2C277.8 39.2 277.4 39.1 277.1 39C276.8 38.8 276.5 38.6 276.3 38.3C276.1 38 275.9 37.7 275.8 37.3C275.7 36.9 275.7 36.5 275.7 36.1C275.7 35.4 275.8 34.8 276 34.2C276.2 33.6 276.6 33.1 277 32.7C277.4 32.3 277.9 31.9 278.5 31.7C279.1 31.5 279.7 31.3 280.3 31.3H280.8C281 31.3 281.3 31.3 281.5 31.4C281.8 31.4 282.1 31.5 282.4 31.6L283.3 31.9L282.3 35.8ZM280.8 33.2H280.1C279.8 33.2 279.5 33.3 279.2 33.4C278.9 33.6 278.7 33.8 278.5 34C278.3 34.3 278.1 34.6 278 34.9C277.9 35.2 277.8 35.6 277.8 36C277.8 36.5 277.9 36.8 278 37.1C278.2 37.4 278.4 37.5 278.8 37.5C279 37.5 279.2 37.5 279.4 37.4C279.6 37.3 279.8 37.2 280 37C280 36.8 280.1 36.5 280.1 36.2C280.1 35.9 280.2 35.7 280.2 35.5L280.8 33.2ZM291.3 34.5C291.3 35.2 291.2 35.8 291 36.4C290.8 37 290.5 37.5 290 37.9C289.6 38.3 289.1 38.6 288.5 38.9C287.9 39.1 287.3 39.3 286.6 39.3C286.3 39.3 286 39.3 285.6 39.2L285 41.8H283L285.4 31.9C285.8 31.8 286.2 31.7 286.7 31.6C287.2 31.5 287.7 31.5 288.3 31.5C288.8 31.5 289.3 31.6 289.7 31.7C290.1 31.9 290.4 32.1 290.7 32.4C290.9 32.7 291.1 33 291.3 33.4V34.5ZM286.2 37.4C286.4 37.4 286.6 37.5 286.8 37.5C287.2 37.5 287.5 37.4 287.8 37.3C288.1 37.2 288.4 37 288.6 36.7C288.8 36.5 289 36.2 289.1 35.8C289.2 35.5 289.3 35.1 289.3 34.6C289.3 34.2 289.2 33.8 289 33.6C288.8 33.3 288.5 33.2 288.1 33.2C287.8 33.2 287.5 33.2 287.2 33.3L286.2 37.4ZM294 29.7L296.2 29.4L295.7 31.6H298.1L297.7 33.3H295.3L294.7 35.9C294.6 36.1 294.6 36.3 294.6 36.5C294.6 36.7 294.6 36.9 294.7 37L295 37.3C295.2 37.4 295.4 37.4 295.6 37.4C295.8 37.4 296.1 37.4 296.3 37.3C296.5 37.3 296.7 37.2 297 37.1L297.2 38.7L296.3 39C296 39.1 295.6 39.1 295.1 39.1C294.4 39.1 293.9 39 293.6 38.8C293.2 38.6 293 38.3 292.8 38C292.6 37.7 292.6 37.3 292.6 36.8C292.6 36.4 292.7 35.9 292.8 35.4L294 29.7ZM305.7 31.5L304.7 35.8C304.6 36.3 304.5 36.9 304.6 37.4L304.9 38.9L303 39.2C302.9 39 302.8 38.8 302.7 38.5C302.4 38.7 302.1 38.9 301.8 39C301.5 39.1 301.1 39.2 300.7 39.2C300.1 39.2 299.7 39.1 299.3 38.9C299 38.7 298.7 38.4 298.5 38.1C298.3 37.8 298.2 37.4 298.2 36.9C298.2 36.5 298.2 36 298.4 35.6L299.4 31.5H301.5L300.5 35.5C300.5 35.7 300.4 35.9 300.4 36.1V36.7C300.4 36.9 300.5 37 300.6 37.2C300.7 37.3 300.9 37.4 301.2 37.4C301.4 37.4 301.6 37.4 301.8 37.3C302 37.2 302.2 37.1 302.4 36.9C302.4 36.7 302.4 36.4 302.5 36.1C302.5 35.8 302.6 35.6 302.6 35.4L303.5 31.5H305.7ZM311.9 33.4C311.7 33.4 311.5 33.3 311.3 33.3C311.1 33.3 310.8 33.2 310.5 33.2H310.1C309.9 33.2 309.8 33.3 309.7 33.3L308.3 39.1H306.2L307.9 32C308.3 31.9 308.8 31.7 309.3 31.6C309.8 31.5 310.4 31.4 311 31.4C311.2 31.4 311.5 31.4 311.8 31.5C312.1 31.5 312.3 31.6 312.6 31.7L311.9 33.4ZM319.1 35.8C319 36.3 318.9 36.9 319 37.4L319.3 38.9L317.4 39.2C317.3 39.1 317.3 39 317.2 38.9C317.2 38.8 317.1 38.7 317.1 38.5C316.8 38.7 316.5 38.9 316.2 39C315.9 39.1 315.5 39.2 315.1 39.2C314.6 39.2 314.2 39.1 313.9 39C313.6 38.8 313.3 38.6 313.1 38.3C312.9 38 312.7 37.7 312.6 37.3C312.5 36.9 312.5 36.5 312.5 36.1C312.5 35.4 312.6 34.8 312.9 34.2C313.1 33.6 313.5 33.1 313.9 32.7C314.3 32.3 314.8 31.9 315.4 31.7C316 31.5 316.6 31.3 317.2 31.3H317.7C317.9 31.3 318.2 31.3 318.4 31.4C318.7 31.4 319 31.5 319.3 31.6L320.2 31.9L319.1 35.8ZM317.6 33.2H316.9C316.6 33.2 316.3 33.3 316 33.4C315.7 33.6 315.5 33.8 315.3 34C315.1 34.3 314.9 34.6 314.8 34.9C314.7 35.2 314.6 35.6 314.6 36C314.6 36.5 314.7 36.8 314.8 37.1C315 37.4 315.2 37.5 315.6 37.5C315.8 37.5 316 37.5 316.2 37.4C316.4 37.3 316.6 37.2 316.8 37C316.8 36.8 316.8 36.5 316.9 36.2C316.9 35.9 317 35.7 317 35.5L317.6 33.2Z" fill="white"/>
</g>
<defs>
<clipPath id="clip0_16_48">
<rect width="322.7" height="53.2" fill="white"/>
</clipPath>
</defs>
</svg>
